<svg xmlns="http://www.w3.org/2000/svg" viewBox="0 0 128 128"><rect width="128" height="128" rx="8" fill="#3178c6"/><path d="M82.8 95.5c2.9 1.5 6.6 2.6 10.6 2.6 4.2 0 6.8-2.1 6.8-5 0-3.5-2.7-4.7-7.2-6.7l-2.5-1.1c-7.1-3-11.8-6.8-11.8-14.8 0-7.4 5.6-13 14.4-13 6.3 0 10.8 2.2 14 7.8l-7.7 4.9c-1.7-3-3.5-4.2-6.3-4.2-2.9 0-4.7 1.8-4.7 4.2 0 2.9 1.8 4.1 6.1 5.9l2.5 1.1c8.4 3.6 13.1 7.2 13.1 15.4 0 8.8-6.9 13.6-16.2 13.6-9.1 0-15-4.3-17.8-9.9l8-4.6zm-35 3h9.7V66h-9.7v-9.5h29.5V66h-9.7v32.5h-9.8V98.5z" fill="#fff"/></svg>