<svg xmlns="http://www.w3.org/2000/svg" width="800" height="500" viewBox="0 0 800 500">
  <defs>
    <linearGradient id="bg" x1="0" y1="0" x2="0" y2="1">
      <stop offset="0%" stop-color="#0f0f23"/>
      <stop offset="100%" stop-color="#0a0a18"/>
    </linearGradient>
    <linearGradient id="pipeGrad" x1="0" y1="0" x2="1" y2="0">
      <stop offset="0%" stop-color="#00b4d9"/>
      <stop offset="100%" stop-color="#2ED47A"/>
    </linearGradient>
    <linearGradient id="gateGrad" x1="0" y1="0" x2="0" y2="1">
      <stop offset="0%" stop-color="#2ED47A" stop-opacity="0.25"/>
      <stop offset="100%" stop-color="#2ED47A" stop-opacity="0.05"/>
    </linearGradient>
  </defs>

  <!-- Background -->
  <rect width="800" height="500" fill="url(#bg)"/>

  <!-- Top bar -->
  <rect x="0" y="0" width="800" height="32" fill="#1a1a2e"/>
  <circle cx="16" cy="16" r="5" fill="#ff5f56"/>
  <circle cx="34" cy="16" r="5" fill="#ffbd2e"/>
  <circle cx="52" cy="16" r="5" fill="#27c93f"/>
  <text x="400" y="20" text-anchor="middle" font-family="Inter, sans-serif" font-size="11" fill="#888">CI/CD Pipeline — Quality Gates Dashboard</text>

  <!-- Header -->
  <rect x="24" y="48" width="752" height="48" rx="8" fill="#16213e"/>
  <text x="48" y="78" font-family="Rajdhani, Inter, sans-serif" font-size="18" font-weight="700" fill="#fff">Pipeline Run #214</text>
  <text x="220" y="78" font-family="Inter, sans-serif" font-size="12" fill="#8892b0">main · a3f7c2e · 2m 47s</text>
  <rect x="620" y="56" width="140" height="32" rx="6" fill="#2ED47A" opacity="0.15"/>
  <text x="690" y="77" text-anchor="middle" font-family="Inter, sans-serif" font-size="13" font-weight="600" fill="#2ED47A">✓ Gate Passed</text>

  <!-- Pipeline stages -->
  <rect x="24" y="108" width="752" height="64" rx="6" fill="#12122a"/>

  <!-- Stage 1: Build -->
  <rect x="40" y="118" width="120" height="44" rx="6" fill="#1a1a3e" stroke="#00b4d9" stroke-width="1"/>
  <text x="100" y="137" text-anchor="middle" font-family="Inter, monospace" font-size="10" fill="#00b4d9">BUILD</text>
  <text x="100" y="153" text-anchor="middle" font-family="Inter, monospace" font-size="11" fill="#2ED47A">✓ 12s</text>

  <!-- Arrow 1 -->
  <line x1="164" y1="140" x2="184" y2="140" stroke="url(#pipeGrad)" stroke-width="2"/>
  <polygon points="184,136 192,140 184,144" fill="#00b4d9"/>

  <!-- Stage 2: Unit Tests -->
  <rect x="196" y="118" width="120" height="44" rx="6" fill="#1a1a3e" stroke="#00b4d9" stroke-width="1"/>
  <text x="256" y="137" text-anchor="middle" font-family="Inter, monospace" font-size="10" fill="#00b4d9">UNIT TESTS</text>
  <text x="256" y="153" text-anchor="middle" font-family="Inter, monospace" font-size="11" fill="#2ED47A">✓ 45s</text>

  <!-- Arrow 2 -->
  <line x1="320" y1="140" x2="340" y2="140" stroke="url(#pipeGrad)" stroke-width="2"/>
  <polygon points="340,136 348,140 340,144" fill="#00b4d9"/>

  <!-- Stage 3: E2E Tests -->
  <rect x="352" y="118" width="120" height="44" rx="6" fill="#1a1a3e" stroke="#00b4d9" stroke-width="1"/>
  <text x="412" y="137" text-anchor="middle" font-family="Inter, monospace" font-size="10" fill="#00b4d9">E2E TESTS</text>
  <text x="412" y="153" text-anchor="middle" font-family="Inter, monospace" font-size="11" fill="#2ED47A">✓ 1m 22s</text>

  <!-- Arrow 3 -->
  <line x1="476" y1="140" x2="496" y2="140" stroke="url(#pipeGrad)" stroke-width="2"/>
  <polygon points="496,136 504,140 496,144" fill="#2ED47A"/>

  <!-- Stage 4: Quality Gate (highlighted) -->
  <rect x="508" y="118" width="120" height="44" rx="6" fill="url(#gateGrad)" stroke="#2ED47A" stroke-width="2"/>
  <text x="568" y="137" text-anchor="middle" font-family="Inter, monospace" font-size="10" font-weight="700" fill="#2ED47A">QUALITY GATE</text>
  <text x="568" y="153" text-anchor="middle" font-family="Inter, monospace" font-size="11" fill="#2ED47A">✓ PASS</text>

  <!-- Arrow 4 -->
  <line x1="632" y1="140" x2="652" y2="140" stroke="url(#pipeGrad)" stroke-width="2"/>
  <polygon points="652,136 660,140 652,144" fill="#2ED47A"/>

  <!-- Stage 5: Deploy -->
  <rect x="664" y="118" width="96" height="44" rx="6" fill="#1a1a3e" stroke="#2ED47A" stroke-width="1"/>
  <text x="712" y="137" text-anchor="middle" font-family="Inter, monospace" font-size="10" fill="#2ED47A">DEPLOY</text>
  <text x="712" y="153" text-anchor="middle" font-family="Inter, monospace" font-size="11" fill="#2ED47A">✓ 28s</text>

  <!-- Quality Gate Details -->
  <text x="48" y="204" font-family="Rajdhani, Inter, sans-serif" font-size="14" font-weight="600" fill="#fff" letter-spacing="2">QUALITY GATE CHECKS</text>
  <line x1="48" y1="212" x2="260" y2="212" stroke="#00b4d9" stroke-width="1" opacity="0.4"/>

  <!-- Check 1: Coverage -->
  <rect x="24" y="222" width="368" height="36" rx="4" fill="#12122a"/>
  <text x="48" y="245" font-family="Inter, monospace" font-size="12" fill="#2ED47A">✓</text>
  <text x="68" y="245" font-family="Inter, monospace" font-size="12" fill="#ccd6f6">Code Coverage</text>
  <text x="220" y="245" font-family="Inter, monospace" font-size="11" fill="#555">≥ 80%</text>
  <rect x="280" y="236" width="80" height="8" rx="4" fill="#1a1a3e"/>
  <rect x="280" y="236" width="69" height="8" rx="4" fill="#2ED47A"/>
  <text x="368" y="245" font-family="Inter, monospace" font-size="11" fill="#2ED47A">86%</text>

  <!-- Check 2: Critical Bugs -->
  <rect x="24" y="262" width="368" height="36" rx="4" fill="#0d0d1a"/>
  <text x="48" y="285" font-family="Inter, monospace" font-size="12" fill="#2ED47A">✓</text>
  <text x="68" y="285" font-family="Inter, monospace" font-size="12" fill="#ccd6f6">Critical Bugs</text>
  <text x="220" y="285" font-family="Inter, monospace" font-size="11" fill="#555">= 0</text>
  <text x="280" y="285" font-family="Inter, monospace" font-size="13" font-weight="700" fill="#2ED47A">0</text>
  <text x="300" y="285" font-family="Inter, monospace" font-size="11" fill="#555">found</text>

  <!-- Check 3: Smoke Tests -->
  <rect x="24" y="302" width="368" height="36" rx="4" fill="#12122a"/>
  <text x="48" y="325" font-family="Inter, monospace" font-size="12" fill="#2ED47A">✓</text>
  <text x="68" y="325" font-family="Inter, monospace" font-size="12" fill="#ccd6f6">Smoke Tests</text>
  <text x="220" y="325" font-family="Inter, monospace" font-size="11" fill="#555">100%</text>
  <rect x="280" y="316" width="80" height="8" rx="4" fill="#1a1a3e"/>
  <rect x="280" y="316" width="80" height="8" rx="4" fill="#2ED47A"/>
  <text x="368" y="325" font-family="Inter, monospace" font-size="11" fill="#2ED47A">12/12</text>

  <!-- Check 4: Security Scan -->
  <rect x="24" y="342" width="368" height="36" rx="4" fill="#0d0d1a"/>
  <text x="48" y="365" font-family="Inter, monospace" font-size="12" fill="#2ED47A">✓</text>
  <text x="68" y="365" font-family="Inter, monospace" font-size="12" fill="#ccd6f6">Security Scan</text>
  <text x="220" y="365" font-family="Inter, monospace" font-size="11" fill="#555">no high/crit</text>
  <text x="310" y="365" font-family="Inter, monospace" font-size="11" fill="#2ED47A">Clean</text>

  <!-- Check 5: Performance -->
  <rect x="24" y="382" width="368" height="36" rx="4" fill="#12122a"/>
  <text x="48" y="405" font-family="Inter, monospace" font-size="12" fill="#2ED47A">✓</text>
  <text x="68" y="405" font-family="Inter, monospace" font-size="12" fill="#ccd6f6">Performance Budget</text>
  <text x="220" y="405" font-family="Inter, monospace" font-size="11" fill="#555">LCP &lt; 2.5s</text>
  <text x="310" y="405" font-family="Inter, monospace" font-size="11" fill="#2ED47A">1.8s</text>

  <!-- Right panel: Test Evidence Summary -->
  <rect x="408" y="222" width="368" height="196" rx="6" fill="#12122a"/>
  <text x="432" y="248" font-family="Rajdhani, Inter, sans-serif" font-size="13" font-weight="600" fill="#fff" letter-spacing="1.5">TEST EVIDENCE SUMMARY</text>
  <line x1="432" y1="256" x2="752" y2="256" stroke="#00b4d9" stroke-width="1" opacity="0.3"/>

  <text x="432" y="280" font-family="Inter, monospace" font-size="11" fill="#8892b0">Unit Tests</text>
  <text x="620" y="280" font-family="Inter, monospace" font-size="11" fill="#2ED47A">148/148 passed</text>

  <text x="432" y="302" font-family="Inter, monospace" font-size="11" fill="#8892b0">Integration</text>
  <text x="620" y="302" font-family="Inter, monospace" font-size="11" fill="#2ED47A">36/36 passed</text>

  <text x="432" y="324" font-family="Inter, monospace" font-size="11" fill="#8892b0">E2E (Playwright)</text>
  <text x="620" y="324" font-family="Inter, monospace" font-size="11" fill="#2ED47A">24/24 passed</text>

  <text x="432" y="346" font-family="Inter, monospace" font-size="11" fill="#8892b0">API Contract</text>
  <text x="620" y="346" font-family="Inter, monospace" font-size="11" fill="#2ED47A">18/18 passed</text>

  <text x="432" y="368" font-family="Inter, monospace" font-size="11" fill="#8892b0">Visual Regression</text>
  <text x="620" y="368" font-family="Inter, monospace" font-size="11" fill="#2ED47A">8/8 passed</text>

  <line x1="432" y1="380" x2="752" y2="380" stroke="#555" stroke-width="1" opacity="0.3"/>
  <text x="432" y="400" font-family="Inter, monospace" font-size="12" font-weight="600" fill="#fff">Total</text>
  <text x="620" y="400" font-family="Inter, monospace" font-size="12" font-weight="700" fill="#2ED47A">234/234 passed</text>

  <!-- Footer -->
  <rect x="24" y="432" width="752" height="52" rx="6" fill="#16213e"/>
  <text x="48" y="455" font-family="Inter, monospace" font-size="11" fill="#00b4d9">GitHub Actions</text>
  <text x="160" y="455" font-family="Inter, monospace" font-size="11" fill="#555">│ SerenityBDD │ Playwright │ SonarQube</text>
  <text x="48" y="473" font-family="Inter, monospace" font-size="10" fill="#555">Release Decision: ✓ APPROVED — All quality gates met</text>
  <text x="680" y="464" font-family="Inter, monospace" font-size="11" fill="#00b4d9">@elionavarretev</text>
</svg>